<?xml version="1.0" encoding="utf-8"?>
<!-- Generator: Adobe Illustrator 19.2.1, SVG Export Plug-In . SVG Version: 6.00 Build 0)  -->
<svg version="1.1" xmlns="http://www.w3.org/2000/svg" xmlns:xlink="http://www.w3.org/1999/xlink" x="0px" y="0px"
	 viewBox="0 0 64 64" style="enable-background:new 0 0 64 64;" xml:space="preserve">
<style type="text/css">
	.st0{fill:#050505;}
	.st1{fill:#38A4DD;}
	.st2{fill:#607D8B;}
	.st3{fill:#E32026;}
	.st4{fill:#279C48;}
</style>
<g id="Layer_2">
	<path class="st2" d="M57.1,17.5C49.1,3.6,31.4-1.1,17.5,6.9C3.6,14.9-1.1,32.6,6.9,46.5c8,13.9,25.7,18.6,39.6,10.6
		C60.4,49.1,65.1,31.4,57.1,17.5L57.1,17.5z M43.6,52.1c-11.1,6.4-25.3,2.6-31.7-8.5c-6.4-11.1-2.6-25.3,8.5-31.7
		c11.1-6.4,25.3-2.6,31.7,8.5C58.5,31.5,54.7,45.7,43.6,52.1L43.6,52.1z M42.4,30.8L27.3,22c-1.4-0.8-2.5-0.2-2.5,1.4L24.8,41
		c0,1.6,1.1,2.3,2.5,1.5l15.1-8.7C43.8,32.9,43.8,31.6,42.4,30.8L42.4,30.8z M42.4,30.8"/>
</g>
<g id="Layer_3">
</g>
</svg>
