<?xml version="1.0" encoding="iso-8859-1"?>
<!-- Generator: Adobe Illustrator 19.0.0, SVG Export Plug-In . SVG Version: 6.00 Build 0)  -->
<svg version="1.1" id="Layer_1" xmlns="http://www.w3.org/2000/svg" xmlns:xlink="http://www.w3.org/1999/xlink" x="0px" y="0px"
	 viewBox="0 0 408.76 408.76" style="enable-background:new 0 0 408.76 408.76;" xml:space="preserve">
<g>
	<path style="fill:#FFBE00;" d="M204.385,408.76c-58.121,0-113.674-24.869-152.417-68.227
		C18.46,303.057,0.005,254.703,0.005,204.379C0.005,91.683,91.69,0,204.385,0c50.317,0,98.674,18.453,136.165,51.964
		c43.346,38.762,68.205,94.314,68.205,152.415C408.755,317.074,317.076,408.76,204.385,408.76"/>
	<path style="fill:#F4502A;" d="M377.752,204.377c0,7.429-0.469,14.749-1.389,21.94c-1.291,10.301-3.49,20.309-6.52,29.96
		c-13.29,42.43-42.441,77.841-80.511,99.271c-8.09,4.559-16.599,8.489-25.439,11.73c-13.351,4.87-27.47,8.149-42.131,9.61
		c-5.719,0.58-11.51,0.87-17.38,0.87c-30.87,0-59.849-8.07-84.959-22.209c-16.69-9.401-31.67-21.491-44.339-35.671
		c-0.26-0.29-0.521-0.589-0.79-0.879c-26.95-30.56-43.29-70.681-43.29-114.62C31.004,108.628,108.625,31,204.384,31
		c43.952,0,84.071,16.348,114.631,43.289c0.29,0.27,0.589,0.53,0.879,0.79C355.402,106.836,377.752,152.987,377.752,204.377"/>
	<path style="fill:#C29100;" d="M80.282,325.445c0.061,0.062,0.123,0.125,0.184,0.188C80.404,325.57,80.344,325.508,80.282,325.445
		 M74.459,319.178c1.879,2.125,3.809,4.202,5.789,6.232c-1.761-1.807-3.484-3.652-5.165-5.533
		C74.876,319.646,74.67,319.41,74.459,319.178"/>
	<path style="fill:#BA3D20;" d="M204.385,30.999c-95.76,0-173.38,77.621-173.38,173.37c0,44.035,16.406,84.231,43.453,114.808
		c0.211,0.232,0.418,0.468,0.624,0.698c1.681,1.882,3.404,3.727,5.165,5.533c0.01,0.011,0.024,0.025,0.034,0.035
		c0.062,0.063,0.122,0.125,0.184,0.188c3.822,3.904,7.825,7.626,12,11.156c-25.53-30.2-40.919-69.239-40.919-111.879
		c0-95.749,77.619-173.37,173.38-173.37c42.629,0,81.68,15.39,111.87,40.919C305.006,54.869,257.485,30.999,204.385,30.999"/>
	<path style="fill:#BA3D20;" d="M280.472,360.206c-0.12,0.059-0.241,0.118-0.362,0.177
		C280.231,360.323,280.352,360.265,280.472,360.206 M256.143,106.096l-60.759,171.552l24,57l69.799,20.978
		c-2.851,1.604-2.748,1.554,0.15-0.079c38.07-21.43,67.221-56.841,80.511-99.271c3.03-9.65,5.23-19.659,6.52-29.96L256.143,106.096"
		/>
	<path style="fill:#1CA4BA;" d="M289.332,310.776v44.771l-0.15,0.079c-20.291,11.42-43.12,18.85-67.42,21.26
		c-5.719,0.58-11.51,0.87-17.38,0.87c-30.87,0-59.849-8.07-84.959-22.209v-44.771c0-12.108,7.56-22.929,18.93-27.108l18.28-6.711
		l1.271-0.471c6.441-2.369,11.8-6.609,15.55-11.979c3.739-5.37,5.88-11.87,5.88-18.73h50.09c0,13.72,8.561,25.98,21.441,30.709
		l1.269,0.471l18.282,6.711C281.783,287.846,289.332,298.667,289.332,310.776"/>
	<path style="fill:#F4CC90;" d="M252.132,276.957c-10.969,14.38-28.279,23.659-47.75,23.659c-19.48,0-36.788-9.279-47.75-23.659
		l1.271-0.471c6.441-2.369,11.8-6.609,15.55-11.979c3.739-5.37,5.88-11.87,5.88-18.73h50.09c0,13.72,8.561,25.98,21.441,30.709
		L252.132,276.957"/>
	<path style="fill:#1992A6;" d="M252.132,276.957c-6.042,7.92-14.008,14.293-23.198,18.421l60.249,60.249l0.15-0.079v-44.771
		c0-12.108-7.549-22.929-18.919-27.108L252.132,276.957"/>
	<path style="fill:#D9B680;" d="M229.45,247.137c-7,3.223-14.728,5.137-22.867,5.429c-0.731,0.041-1.461,0.05-2.201,0.05
		c-8.002,0-15.638-1.566-22.618-4.408l47.17,47.17c9.19-4.127,17.157-10.501,23.198-18.421l0,0l-1.269-0.471
		C238.41,271.914,229.995,260.302,229.45,247.137"/>
	<path style="fill:#F4CC90;" d="M264.382,134.336v58.28c0,32.401-25.69,58.8-57.799,59.951c-0.731,0.041-1.461,0.05-2.201,0.05
		c-33.14,0-59.999-26.859-59.999-60v-58.28h119.999"/>
	<polyline style="fill:#D94725;" points="144.383,176.866 135.632,181.617 144.383,190.368 144.383,176.866 	"/>
	<path style="fill:#D9B680;" d="M239.632,125.116l-95.249,51.75v13.502l62.2,62.198c32.109-1.15,57.799-27.55,57.799-59.951v-49.499
		L239.632,125.116"/>
	<path style="fill:#4D4D4D;" d="M273.632,181.616v-32.619c0-33.9-27.481-61.381-61.381-61.381h-15.238
		c-33.9,0-61.381,27.481-61.381,61.381v32.619c0,0,86,10,106-32C241.632,149.616,257.632,174.616,273.632,181.616z"/>
</g>
<g>
</g>
<g>
</g>
<g>
</g>
<g>
</g>
<g>
</g>
<g>
</g>
<g>
</g>
<g>
</g>
<g>
</g>
<g>
</g>
<g>
</g>
<g>
</g>
<g>
</g>
<g>
</g>
<g>
</g>
</svg>
