<?xml version="1.0" encoding="utf-8"?>
<!-- Generator: Adobe Illustrator 19.2.1, SVG Export Plug-In . SVG Version: 6.00 Build 0)  -->
<svg version="1.1" xmlns="http://www.w3.org/2000/svg" xmlns:xlink="http://www.w3.org/1999/xlink" x="0px" y="0px"
	 viewBox="0 0 80 64" style="enable-background:new 0 0 80 64;" xml:space="preserve">
<style type="text/css">
	.st0{fill:#050505;}
	.st1{fill:#38A4DD;}
	.st2{fill:#607D8B;}
	.st3{fill:#E32026;}
	.st4{fill:#279C48;}
	.st5{fill:#FFFFFF;}
</style>
<g id="Layer_2">
	<g>
		<path class="st5" d="M2.5,26.9h35.6c0.7,0,1.3-0.3,1.8-0.8s0.8-1.1,0.8-1.8c0-0.7-0.3-1.3-0.8-1.8L22.2,4.7
			C21.7,4.2,21.1,4,20.4,4c-0.7,0-1.3,0.3-1.8,0.8L0.8,22.6C0.3,23.1,0,23.7,0,24.4c0,0.7,0.3,1.3,0.8,1.8
			C1.3,26.7,1.9,26.9,2.5,26.9L2.5,26.9z M2.5,26.9"/>
		<path class="st5" d="M38.2,37.1H2.5c-0.7,0-1.3,0.3-1.8,0.8C0.3,38.4,0,38.9,0,39.6c0,0.7,0.3,1.3,0.8,1.8l17.8,17.8
			c0.5,0.5,1.1,0.8,1.8,0.8c0.7,0,1.3-0.3,1.8-0.8L40,41.4c0.5-0.5,0.8-1.1,0.8-1.8c0-0.7-0.3-1.3-0.8-1.8
			C39.5,37.3,38.9,37.1,38.2,37.1L38.2,37.1z M38.2,37.1"/>
	</g>
</g>
<g id="Layer_3">
</g>
</svg>
