<?xml version="1.0" encoding="utf-8"?>
<!-- Generator: Adobe Illustrator 19.2.1, SVG Export Plug-In . SVG Version: 6.00 Build 0)  -->
<svg version="1.1" xmlns="http://www.w3.org/2000/svg" xmlns:xlink="http://www.w3.org/1999/xlink" x="0px" y="0px"
	 viewBox="0 0 64 64" style="enable-background:new 0 0 64 64;" xml:space="preserve">
<style type="text/css">
	.st0{fill:#050505;}
	.st1{fill:#38A4DD;}
	.st2{fill:#607D8B;}
	.st3{fill:#E32026;}
	.st4{fill:#279C48;}
</style>
<g id="Layer_2">
	<g>
		<g>
			<path class="st3" d="M57.1,17.5C49.1,3.6,31.4-1.1,17.5,6.9C3.6,14.9-1.1,32.6,6.9,46.5c8,13.9,25.7,18.6,39.6,10.6
				C60.4,49.1,65.1,31.4,57.1,17.5L57.1,17.5z M43.6,52.1c-11.1,6.4-25.3,2.6-31.7-8.5c-6.4-11.1-2.6-25.3,8.5-31.7
				c11.1-6.4,25.3-2.6,31.7,8.5C58.5,31.5,54.7,45.7,43.6,52.1L43.6,52.1z M42.4,30.8"/>
			<path class="st3" d="M36.1,32.3l7.5-7.5c1.2-1.2,1.2-3.1,0-4.3c-1.2-1.2-3.1-1.2-4.3,0L31.8,28l-7.5-7.5c-1.2-1.2-3.1-1.2-4.3,0
				c-1.2,1.2-1.2,3.1,0,4.3l7.5,7.5L20,39.8c-1.2,1.2-1.2,3.1,0,4.3c0.6,0.6,1.4,0.9,2.2,0.9c0.8,0,1.6-0.3,2.2-0.9l7.5-7.5l7.5,7.5
				c0.6,0.6,1.4,0.9,2.2,0.9c0.8,0,1.6-0.3,2.2-0.9c1.2-1.2,1.2-3.1,0-4.3L36.1,32.3z M36.1,32.3"/>
		</g>
	</g>
</g>
<g id="Layer_3">
</g>
</svg>
